<svg width="580" height="400" xmlns="http://www.w3.org/2000/svg">
 <!-- Created with SVG Editor - http://github.com/mzalive/SVG Editor/ -->

 <g>
  <title>background</title>
  <rect fill="#fff" id="canvas_background" height="402" width="582" y="-1" x="-1"/>
  <g display="none" overflow="visible" y="0" x="0" height="100%" width="100%" id="canvasGrid">
   <rect fill="url(#gridpattern)" stroke-width="0" y="0" x="0" height="100%" width="100%"/>
  </g>
 </g>
 <g>
  <title>Layer 1</title>
  <g stroke="null" id="svg_22">
   <g stroke="null" id="svg_4" transform="matrix(0.2276306828359711,0,0,0.2276306828359711,16.617040266867104,61.91554831502236) ">
    <g stroke="null" id="svg_5">
     <path stroke="null" id="svg_6" d="m336.133002,-162.796994c-19.608,-33.592 -46.205,-60.189 -79.798,-79.796c-33.599,-19.606 -70.277,-29.407 -110.062,-29.407c-39.781,0 -76.47,9.801 -110.063,29.407c-33.595,19.604 -60.192,46.201 -79.8,79.796c-19.609,33.597 -29.41,70.286 -29.41,110.064c0,39.78 9.804,76.463 29.407,110.062c19.607,33.592 46.204,60.189 79.799,79.798c33.597,19.605 70.283,29.407 110.063,29.407s76.47,-9.802 110.065,-29.407c33.593,-19.602 60.189,-46.206 79.795,-79.798c19.603,-33.596 29.403,-70.284 29.403,-110.062c0.001,-39.782 -9.8,-76.472 -29.399,-110.064zm-55.391,188.005c-13.894,23.791 -32.736,42.633 -56.527,56.534c-23.791,13.894 -49.771,20.834 -77.945,20.834c-28.167,0 -54.149,-6.94 -77.943,-20.834c-23.791,-13.901 -42.633,-32.743 -56.527,-56.534c-13.897,-23.791 -20.843,-49.772 -20.843,-77.941c0,-28.171 6.949,-54.152 20.843,-77.943c13.891,-23.791 32.738,-42.637 56.527,-56.53c23.791,-13.895 49.772,-20.84 77.943,-20.84c28.173,0 54.154,6.945 77.945,20.84c23.791,13.894 42.634,32.739 56.527,56.53c13.895,23.791 20.838,49.772 20.838,77.943c0,28.169 -6.943,54.15 -20.838,77.941z"/>
    </g>
    <g stroke="null" id="svg_7"/>
    <g stroke="null" id="svg_8"/>
    <g stroke="null" id="svg_9"/>
    <g stroke="null" id="svg_10"/>
    <g stroke="null" id="svg_11"/>
    <g stroke="null" id="svg_12"/>
    <g stroke="null" id="svg_13"/>
    <g stroke="null" id="svg_14"/>
    <g stroke="null" id="svg_15"/>
    <g stroke="null" id="svg_16"/>
    <g stroke="null" id="svg_17"/>
    <g stroke="null" id="svg_18"/>
    <g stroke="null" id="svg_19"/>
    <g stroke="null" id="svg_20"/>
    <g stroke="null" id="svg_21"/>
   </g>
  </g>
 </g>
</svg>