<svg width="580" height="400" xmlns="http://www.w3.org/2000/svg">
 <!-- Created with SVG Editor - http://github.com/mzalive/SVG Editor/ -->

 <g>
  <title>background</title>
  <rect fill="#fff" id="canvas_background" height="402" width="582" y="-1" x="-1"/>
 </g>
 <g>
  <title>Layer 1</title>
  <g stroke="null" id="svg_71">
   <g stroke="null" transform="matrix(3.5632053510117996,0,0,3.5632053510117996,-4.759228910151816,-20.357387647900662) " id="svg_53">
    <g stroke="null" id="svg_51">
     <g stroke="null" id="svg_54">
      <polygon stroke="null" id="svg_55" fill="#030104" points="29.33565902709961,28.11122417449951 20.929658889770508,19.71322250366211 29.33565902709961,11.315223336219788 23.733659744262695,5.713223457336426 15.33565902709961,14.115223407745361 6.933659553527832,5.713223457336426 1.3356592655181885,11.315223336219788 9.733659744262695,19.71322250366211 1.3356592655181885,28.11122417449951 6.933659553527832,33.713223457336426 15.33565902709961,25.311222076416016 23.733659744262695,33.713223457336426 "/>
     </g>
    </g>
   </g>
   <g stroke="null" transform="matrix(3.5632053510117996,0,0,3.5632053510117996,-4.759228910151816,-20.357387647900662) " id="svg_56"/>
   <g stroke="null" transform="matrix(3.5632053510117996,0,0,3.5632053510117996,-4.759228910151816,-20.357387647900662) " id="svg_57"/>
   <g stroke="null" transform="matrix(3.5632053510117996,0,0,3.5632053510117996,-4.759228910151816,-20.357387647900662) " id="svg_58"/>
   <g stroke="null" transform="matrix(3.5632053510117996,0,0,3.5632053510117996,-4.759228910151816,-20.357387647900662) " id="svg_59"/>
   <g stroke="null" transform="matrix(3.5632053510117996,0,0,3.5632053510117996,-4.759228910151816,-20.357387647900662) " id="svg_60"/>
   <g stroke="null" transform="matrix(3.5632053510117996,0,0,3.5632053510117996,-4.759228910151816,-20.357387647900662) " id="svg_61"/>
   <g stroke="null" transform="matrix(3.5632053510117996,0,0,3.5632053510117996,-4.759228910151816,-20.357387647900662) " id="svg_62"/>
   <g stroke="null" transform="matrix(3.5632053510117996,0,0,3.5632053510117996,-4.759228910151816,-20.357387647900662) " id="svg_63"/>
   <g stroke="null" transform="matrix(3.5632053510117996,0,0,3.5632053510117996,-4.759228910151816,-20.357387647900662) " id="svg_64"/>
   <g stroke="null" transform="matrix(3.5632053510117996,0,0,3.5632053510117996,-4.759228910151816,-20.357387647900662) " id="svg_65"/>
   <g stroke="null" transform="matrix(3.5632053510117996,0,0,3.5632053510117996,-4.759228910151816,-20.357387647900662) " id="svg_66"/>
   <g stroke="null" transform="matrix(3.5632053510117996,0,0,3.5632053510117996,-4.759228910151816,-20.357387647900662) " id="svg_67"/>
   <g stroke="null" transform="matrix(3.5632053510117996,0,0,3.5632053510117996,-4.759228910151816,-20.357387647900662) " id="svg_68"/>
   <g stroke="null" transform="matrix(3.5632053510117996,0,0,3.5632053510117996,-4.759228910151816,-20.357387647900662) " id="svg_69"/>
   <g stroke="null" transform="matrix(3.5632053510117996,0,0,3.5632053510117996,-4.759228910151816,-20.357387647900662) " id="svg_70"/>
  </g>
 </g>
</svg>